<svg height="512" viewBox="0 0 512 512" width="512" xmlns="http://www.w3.org/2000/svg"><path d="m264 232h16v16h-16z"/><path d="m326.013 291.336-3.483-10.448a204.8 204.8 0 0 1 -10.53-64.888v-9.785c0-25.106 4.187-51.235 13.175-82.231a71.832 71.832 0 0 0 2.8-21.783c-.925-37.811-32.387-69.293-70.135-70.179-20.281-.486-39.242 6.951-52.061 20.375-17.5 18.328-40.22 69.1-49.79 91.6h12.011c0-17.645 17.944-32 40-32a45.653 45.653 0 0 1 26.4 8h5.6a56.064 56.064 0 0 1 56 56v112.796a47.249 47.249 0 0 1 11.713 13.959 189.827 189.827 0 0 1 20.132 55.679c8.285 41.425-7.478 97.4-8.153 99.767a8 8 0 0 1 -13.838 2.924l-4.149-4.98c-17.606-21.127-43.064-24.176-72.088-25.781-9.928-.549-18.031-4.913-23.434-12.619-6.012-8.574-8.657-21.124-7.86-37.3a149.628 149.628 0 0 1 5.8-33.628c5.154-17.113 20.931-46.437 43.878-59.844v-110.97a8.009 8.009 0 0 0 -8-8h-5.6a45.653 45.653 0 0 1 -26.4 8 46.648 46.648 0 0 1 -24-6.417v29.526a8.9 8.9 0 0 0 8.89 8.891h31.109a8 8 0 0 1 8 8v32a7.994 7.994 0 0 1 -.845 3.578l-19.378 38.756a264.448 264.448 0 0 0 -27.777 117.666v72h160v-77.821a349.9 349.9 0 0 0 -17.987-110.843z"/><path d="m264 280.816a39.4 39.4 0 0 1 16 .3v-17.116h-16z"/><path d="m240 136h-8.3a8 8 0 0 1 -5.118-1.852c-4.699-3.907-11.47-6.148-18.582-6.148-13.009 0-24 7.327-24 16s10.991 16 24 16c7.112 0 13.883-2.241 18.577-6.148a8 8 0 0 1 5.123-1.852h8.3a24.028 24.028 0 0 1 24 24v40h16v-40a40.045 40.045 0 0 0 -40-40z"/><path d="m219.442 351.426a132.688 132.688 0 0 0 -5.139 29.8c-.608 12.365 1.114 21.815 4.98 27.33 2.592 3.7 6.156 5.548 11.217 5.828 28.717 1.589 56.245 4.808 77.311 24.891 4.03-18.771 9.471-52.076 4.344-77.707a175.2 175.2 0 0 0 -18.4-51c-3.608-6.444-8.782-11.09-14.568-13.082a24 24 0 0 0 -7.871-1.345 28.731 28.731 0 0 0 -13.16 3.485c-17.108 8.764-33.118 33.219-38.714 51.8z"/><path d="m141.657 181.657a8 8 0 0 0 -5.657-13.657h-32v16h12.686l-30.745 30.745a31.6 31.6 0 0 1 -53.941-22.345v-24.4h-16v24.4a47.6 47.6 0 0 0 81.255 33.657z"/><path d="m155.062 192.609a8 8 0 0 0 -8.719 1.734l-42.743 42.745a53.255 53.255 0 0 0 37.655 90.912h10.745v-16h-10.745a37.255 37.255 0 0 1 -26.343-63.6l29.088-29.087v12.687h16v-32a8 8 0 0 0 -4.938-7.391z"/></svg>